<?xml version="1.0" encoding="UTF-8"?>
<!DOCTYPE svg PUBLIC "-//W3C//DTD SVG 1.1//EN" "http://www.w3.org/Graphics/SVG/1.1/DTD/svg11.dtd">
<!-- Creator: CorelDRAW 2019 (64-Bit) -->
<svg xmlns="http://www.w3.org/2000/svg" xml:space="preserve" width="150.366mm" height="114.244mm" version="1.1" style="shape-rendering:geometricPrecision; text-rendering:geometricPrecision; image-rendering:optimizeQuality; fill-rule:evenodd; clip-rule:evenodd"
viewBox="0 0 150.3082 114.2004"
 xmlns:xlink="http://www.w3.org/1999/xlink"
 xmlns:xodm="http://www.corel.com/coreldraw/odm/2003">
 <defs>
  <style type="text/css">
   <![CDATA[
    .fil0 {fill:#E21E2D}
    .fil1 {fill:#F5C309}
    .fil3 {fill:#13ACA0}
    .fil2 {fill:#336DB3}
   ]]>
  </style>
 </defs>
 <g id="Layer_x0020_1">
  <metadata id="CorelCorpID_0Corel-Layer"/>
  <g id="_863884960">
   <path class="fil0" d="M81.0991 23.7482l-0.0987 90.4522 -24.2348 -7.8821 0 -106.3183 30.9343 8.1792c19.8018,5.3217 31.9187,15.6666 31.7221,33.797 -0.1967,21.0865 -9.9499,29.5593 -28.9639,24.0418l0 -41.5815c0,-5.0254 -9.3591,-5.3197 -9.3591,-0.6882z"/>
   <path class="fil1" d="M45.6328 88.7774l-11.4283 3.8437c-7.3896,2.5625 -13.6939,-3.4476 -6.8962,-5.9126l5.5164 -1.9691 -20.7874 -6.603c-6.4037,2.1686 -12.4136,6.7997 -12.0187,13.3029 0.394,6.6014 15.4668,8.1785 27.0928,10.0507 10.8361,1.7727 20.688,0.7877 29.654,-2.3657l0 -6.7993 -11.1325 -3.5476zm35.5647 25.423l0 0 21.1815 -7.3908 -21.3785 -6.7979 0 13.6949 0.197 0.4937z"/>
   <path class="fil2" d="M137.55 94.3956l0.3934 -0.099c9.2611,-3.2507 13.2021,-7.7848 12.2175,-12.0202 -1.577,-7.094 -12.9062,-10.9377 -30.3443,-12.2191 -12.5117,-0.8862 -24.8261,1.8721 -36.8452,6.01l-1.9704 0.6904 21.5751 6.7004 12.61 -4.2378c13.202,-2.4627 18.5223,1.8722 5.8131,5.9126l-6.305 2.1665 22.8559 7.0961zm-80.7843 -31.333l0 0 -9.557 3.2507 9.557 2.9563 0 -6.2069z"/>
   <path class="fil3" d="M102.3789 106.8096l35.1711 -12.414 -22.857 -7.0961 -33.6925 11.5284 0 1.1838 21.3785 6.7979zm-45.6133 -21.776l0 0 -11.1324 3.7441 11.1324 3.5473 0 -7.2914zm24.2348 5.815l0 0 0 -14.0908 21.5756 6.7004 -21.5756 7.3904zm-48.1755 -6.1093l0 0 23.9403 -8.5724 0 -6.8973 -9.5566 -2.9563 -34.6788 11.7254c-0.0984,0 -0.2954,0.0977 -0.4922,0.0977l20.7873 6.603z"/>
  </g>
 </g>
</svg>
